<?xml version="1.0" encoding="utf-8"?>
<!-- Generator: Adobe Illustrator 16.0.0, SVG Export Plug-In . SVG Version: 6.00 Build 0)  -->
<!DOCTYPE svg PUBLIC "-//W3C//DTD SVG 1.1//EN" "http://www.w3.org/Graphics/SVG/1.1/DTD/svg11.dtd">
<svg version="1.1" id="Layer_1" xmlns="http://www.w3.org/2000/svg" xmlns:xlink="http://www.w3.org/1999/xlink" x="0px" y="0px"
	 width="1229px" height="322px" viewBox="0 0 1229 322" enable-background="new 0 0 1229 322" xml:space="preserve">
<g>
	<path fill="#FFFFFF" d="M999.365,9h0.846c5.244,1.934,10.865,2.44,16.302,3.645c27.697,5.609,55.186,12.373,82.093,21.051
		c23.467,7.672,46.594,16.74,68.133,28.884c11.44,6.522,22.436,13.954,32.084,22.948c7.313,6.856,13.824,14.726,18.29,23.745
		c3.41,6.745,5.201,14.201,5.72,21.725v2.576c-0.531,11.885-5.071,23.269-11.835,32.955c-10.402,14.955-24.684,26.729-39.669,36.859
		c-19.952,13.372-41.664,23.867-63.797,33.077c-27.389,11.341-55.661,20.428-84.212,28.328
		c-55.358,15.103-111.885,25.585-168.689,33.455c-60.652,8.376-121.7,13.694-182.829,16.906c-2.891,0.26-5.837,0.068-8.653,0.847
		h-3.349c1.144-0.099,2.28-0.234,3.43-0.364c2.902-1.291,6.139-1.396,9.222-2.008c47.341-7.986,94.546-16.776,141.498-26.82
		c53.302-11.483,106.362-24.418,158.312-41.084c25.647-8.327,51.048-17.549,75.589-28.755c19.958-9.246,39.563-19.661,56.909-33.294
		c9.321-7.468,18.044-15.974,24.326-26.222c5.59-9.043,8.869-19.729,8.054-30.422c-0.729-11.699-5.911-22.645-12.626-32.078
		c-11.291-15.745-26.486-28.155-42.158-39.323c-22.045-15.431-45.79-28.254-69.955-40.021c-4.096-1.76-7.925-4.194-12.23-5.411
		C999.884,9.797,999.618,9.401,999.365,9L999.365,9z"/>
	<path fill="#FFFFFF" d="M879.345,20.465c6.399-1.989,13.145-2.397,19.81-2.483c12.083-0.012,24.115,1.328,36.093,2.811
		c-1.637,9.278-3.336,18.55-5.084,27.803c-5.763-1.038-11.656-1.693-17.505-1.125c-2.997,0.371-5.882,2.007-7.277,4.75
		c-2.576,4.429-1.729,9.71-1.982,14.59c12.688-0.043,25.381,0.043,38.068-0.037c0.068-7.45-0.055-14.899,0.062-22.349
		c15.411-7.771,30.719-15.745,46.111-23.547c0.006,15.307-0.087,30.614,0.044,45.92c8.499,0,16.999,0.019,25.505-0.006
		c0.067,11.199-0.024,22.398,0.049,33.597c-8.543,0.08-17.079-0.012-25.616,0.049c0.007,10.699,0,21.404,0.007,32.102
		c0.147,6.394-0.488,12.879,0.821,19.192c0.735,3.558,4.312,5.683,7.771,5.757c5.231,0.223,10.334-1.353,15.288-2.866
		c1.118,10.581,2.335,21.156,3.317,31.751c-14.831,3.229-30.193,4.817-45.309,2.902c-5.184-0.784-10.465-2.112-14.764-5.238
		c-5.534-3.836-9.283-9.907-10.921-16.382c-2.162-8.431-2.174-17.19-2.347-25.832c0.006-13.793-0.02-27.581,0.012-41.368
		c-12.713-0.086-25.425,0.019-38.137-0.012c-0.031,29.02-0.007,58.045-0.007,87.072c-15.418,0-30.836,0-46.247,0
		c-0.013-29.021,0.019-58.04-0.019-87.06c-5.77-0.037-11.532-0.006-17.296-0.019c0-11.211,0-22.423,0-33.634
		c5.757-0.006,11.508,0.006,17.265-0.006c-0.111-8.209,0.309-16.468,2.211-24.486c1.298-5.596,3.954-11.007,8.234-14.923
		C870.9,24.282,875.002,21.984,879.345,20.465L879.345,20.465z"/>
	<path fill="#FFFFFF" d="M7.224,20.742c42.442-0.024,84.892-0.006,127.34-0.006c0,11.91,0.019,23.825-0.006,35.74
		c-25.203,0-50.399-0.006-75.595,0c-0.006,9.748-0.018,19.489,0,29.23c21.509,0.012,43.018,0.018,64.526,0
		c0.068,11.156,0.019,22.317,0.024,33.479c-21.49,0-42.986,0.031-64.476-0.019c-0.179,22.781-0.043,45.562-0.068,68.337
		c-17.252,0.024-34.499,0.013-51.751,0.006C7.229,131.923,7.229,76.33,7.224,20.742L7.224,20.742z"/>
	<path fill="#FFFFFF" d="M591.018,71.493c9.581-5.164,20.613-6.721,31.355-7.227c7.406-0.476,14.843-0.383,22.243,0.229
		c10.26,0.47,20.879,2.304,29.501,8.247c8.371,5.362,13.652,14.269,17.217,23.331c-14.523,1.612-29.095,2.786-43.61,4.429
		c-1.174-3.422-3.015-6.813-6.159-8.784c-5.67-3.571-12.792-4.077-19.241-2.811c-3.583,0.717-7.165,2.959-8.376,6.56
		c-0.531,2.261-0.568,4.985,1.081,6.813c1.896,2.323,4.886,3.28,7.69,4.002c6.35,1.606,12.903,2.187,19.377,3.12
		c8.778,1.081,17.531,2.619,26.012,5.189c8.734,2.742,17.067,7.87,22.046,15.739c4.646,6.937,6.239,15.652,4.861,23.843
		c-1.81,9.809-7.413,18.988-15.665,24.684c-11.124,7.974-25.042,10.524-38.439,11.174c-13.855,0.396-27.92,0.254-41.43-3.193
		c-7.413-1.854-14.541-5.244-20.051-10.619c-6.22-5.861-10.304-13.743-12.181-22.027c15.232-1.6,30.502-2.811,45.742-4.423
		c1.853,5.183,4.854,10.464,10.019,12.917c5.571,2.649,12.026,2.829,18.019,1.797c4.04-0.667,8.116-2.477,10.612-5.849
		c2.236-3.04,2.205-7.616-0.414-10.433c-2.983-3.163-7.468-3.898-11.496-4.917c-14.577-3.212-29.532-4.923-43.758-9.624
		c-8.709-2.773-16.017-9.309-20.249-17.357c-3.922-7.635-4.361-16.808-1.909-24.968C576.465,82.68,583.13,75.693,591.018,71.493
		L591.018,71.493z"/>
	<path fill="#FFFFFF" d="M223.934,155.353c-8.667,9.704-25.826,10.649-34.888,0.995c-4.719-4.695-6.208-11.458-7.091-17.814
		c30.984-0.136,61.968,0.086,92.946-0.111c0.012-10.05-0.185-20.205-2.699-30.002c-3.039-13.133-10.742-25.283-21.953-32.912
		c-10.872-7.641-24.332-10.408-37.384-11.149c-8.216-0.803-16.505-0.34-24.671,0.772c-14.485,2.014-28.594,8.648-38.261,19.804
		c-8.395,9.346-13.281,21.546-14.38,34.011c-1.717,15.406,1.007,31.769,9.741,44.809c6.301,9.667,15.436,17.734,26.395,21.645
		c10.594,3.793,21.978,4.75,33.152,4.67c12.391,0.043,25.029-1.013,36.723-5.361c13.429-5.084,23.695-16.172,30.65-28.446
		c-15.202-1.217-30.354-2.965-45.556-4.058C225.774,153.277,224.885,154.346,223.934,155.353z M185.901,102.527
		c2.848-5.078,7.672-9.173,13.392-10.538c7.042-1.773,15.184-0.513,20.706,4.429c5.528,5.071,7.24,12.873,7.944,20.051
		c-15.288-0.031-30.577,0.049-45.865-0.037C182.757,111.669,183.579,106.808,185.901,102.527z"/>
	<path fill="#FFFFFF" d="M513.65,155.304c-8.642,9.735-25.808,10.718-34.895,1.081c-4.744-4.695-6.257-11.477-7.116-17.858
		c30.972-0.118,61.95,0.086,92.922-0.105c-0.136-6.097,0.117-12.23-0.686-18.29c-1.161-11.638-4.564-23.368-11.699-32.807
		c-6.999-9.463-17.29-16.301-28.575-19.532c-9.822-2.872-20.119-3.706-30.305-3.83c-13.145,0.136-26.629,2.15-38.254,8.611
		c-12.354,6.745-22.089,18.179-26.63,31.509c-4.132,12.36-4.694,25.833-2.143,38.582c2.427,12.243,8.864,23.584,17.938,32.127
		c6.294,5.96,14.152,10.173,22.546,12.298c11.885,3.15,24.288,3.212,36.5,2.848c11.465-0.772,23.232-2.341,33.536-7.752
		c10.791-5.807,19.112-15.388,25.103-25.932c-15.189-1.21-30.341-2.928-45.531-4.071
		C515.479,153.247,514.595,154.297,513.65,155.304z M478.126,98.864c7.709-9.618,23.936-10.266,32.516-1.507
		c4.763,5.14,6.332,12.342,6.956,19.112c-15.288-0.031-30.57,0.055-45.858-0.043C472.616,110.248,473.851,103.688,478.126,98.864z"
		/>
	<path fill="#FFFFFF" d="M830.446,91.946c-6.485-10.236-16.412-18.111-27.691-22.472c-13.003-4.973-27.241-6.27-41.04-5.041
		c-11.786,0.871-23.534,4.274-33.418,10.872c-11.076,7.412-19.742,18.525-23.764,31.274c-2.977,9.519-3.768,19.711-2.551,29.601
		c1.267,11.724,6.146,23.053,13.979,31.892c9.26,10.755,22.398,17.827,36.309,20.348c13.071,2.446,26.667,2.248,39.67-0.544
		c12.435-2.742,24.208-9.043,32.707-18.605c8.303-9.024,13.516-20.773,14.812-32.948C841.337,121.12,839.008,104.911,830.446,91.946
		z M793.403,134.456c-0.772,6.875-2.718,14.146-8.024,18.951c-7.566,7.382-20.829,7.567-28.611,0.408
		c-5.986-5.065-8.21-13.077-8.871-20.606c-0.321-7.968-0.395-16.258,2.816-23.72c2.903-7.06,9.495-12.725,17.203-13.602
		c5.634-0.902,11.663,0.643,16.066,4.293c3.812,3.008,6.456,7.308,7.846,11.928C794.039,119.329,793.946,127,793.403,134.456z"/>
	<path fill="#FFFFFF" d="M412.859,20.749c-15.573-0.037-31.145-0.019-46.718-0.007c-0.018,19.26,0.05,38.527-0.037,57.787
		c-7.072-7.32-16.443-12.416-26.567-13.837c-12.298-1.939-25.542,0.136-35.969,7.184c-8.327,5.528-14.8,13.682-18.433,22.991
		c-5.059,12.688-5.701,26.636-4.818,40.114c1.266,14.287,6.06,28.525,15.146,39.762c6.184,7.609,15.171,12.793,24.826,14.461
		c11.094,1.951,23.028,0.92,33.029-4.553c6.542-3.719,11.372-9.631,16.332-15.141c0.086,6.005,0.012,12.002,0.043,18.007
		c14.387-0.013,28.779,0.024,43.172-0.02C412.828,131.917,412.84,76.336,412.859,20.749z M366.031,135.049
		c-0.717,6.053-2.712,12.403-7.48,16.505c-6.609,6.22-18.037,6.634-24.684,0.26c-6.375-5.726-7.61-14.813-7.845-22.917
		c0.031-6.956,0.426-14.22,3.508-20.583c2.304-4.527,6.505-8.185,11.483-9.407c4.293-0.778,8.919-0.55,12.885,1.415
		c5.479,2.625,9.426,7.857,11.026,13.658C366.833,120.811,366.945,128.044,366.031,135.049z"/>
</g>
</svg>
